<svg width="105" height="26" viewBox="0 0 105 26" fill="none" xmlns="http://www.w3.org/2000/svg">
<path d="M55.3847 6.37809C54.5715 6.37809 53.8861 6.09359 53.3439 5.53356C52.8063 4.98922 52.5061 4.23878 52.5196 3.47265C52.5196 2.65501 52.7974 1.96281 53.3439 1.41398C53.8838 0.853954 54.5693 0.569458 55.3825 0.569458C56.1867 0.569458 56.8721 0.853954 57.4232 1.41398C57.9698 1.98073 58.2476 2.67293 58.2476 3.47265C58.2386 4.29254 57.9608 4.98474 57.4232 5.53132C56.8833 6.09583 56.1979 6.37809 55.3847 6.37809ZM31.1892 6.37809C30.3939 6.37809 29.704 6.09807 29.1394 5.54476C28.5794 4.9937 28.2949 4.29702 28.2949 3.47489C28.2949 2.65277 28.5794 1.95609 29.1394 1.40502C29.6928 0.851714 30.3827 0.571698 31.1892 0.571698C31.5834 0.571698 31.9665 0.650103 32.3339 0.809151C32.6945 0.963719 32.988 1.17429 33.2053 1.4319L33.259 1.49687L32.652 2.09274L32.5892 2.01882C32.2465 1.61111 31.7873 1.41174 31.1802 1.41174C30.6381 1.41174 30.1654 1.60439 29.7756 1.98521C29.3836 2.36827 29.1842 2.87006 29.1842 3.47713C29.1842 4.08421 29.3836 4.58599 29.7756 4.96905C30.1654 5.34987 30.6381 5.54252 31.1802 5.54252C31.7581 5.54252 32.2443 5.34987 32.6228 4.96905C32.8468 4.74504 32.9857 4.43143 33.035 4.03492H31.0884V3.19712H33.8706L33.8818 3.27328C33.9019 3.41441 33.9221 3.56002 33.9221 3.69443C33.9221 4.46727 33.6891 5.09226 33.2277 5.55373C32.7035 6.10032 32.018 6.37809 31.1892 6.37809ZM63.3595 6.25936H62.5016L59.8739 2.05466L59.8963 2.81182V6.25712H59.0383V0.690425H60.0173L60.0441 0.732987L62.515 4.69352L62.4926 3.9386V0.690425H63.3595V6.25936ZM48.9376 6.25936H48.0685V1.52823H46.5609V0.690425H50.443V1.52823H48.9354V6.25936H48.9376ZM45.853 6.25936H44.9861V0.690425H45.853V6.25936ZM40.9807 6.25936H40.1138V1.52823H38.6062V0.690425H42.4883V1.52823H40.9807V6.25936ZM38.0574 6.2504H34.733V0.690425H38.0574V1.52823H35.6022V3.05599H37.8177V3.88484H35.6022V5.4126H38.0574V6.2504ZM53.9801 4.95785C54.3677 5.3454 54.8381 5.54029 55.3847 5.54029C55.947 5.54029 56.4062 5.34987 56.7893 4.95785C57.1701 4.57703 57.3627 4.07749 57.3627 3.47489C57.3627 2.8723 57.1701 2.37051 56.7915 1.99193C56.4039 1.60439 55.9313 1.4095 55.3869 1.4095C54.8247 1.4095 54.3654 1.59991 53.9846 1.99193C53.6038 2.37275 53.4112 2.8723 53.4112 3.47489C53.4112 4.07749 53.6016 4.57927 53.9801 4.95785Z" fill="#2F343D"/>
<path fill-rule="evenodd" clip-rule="evenodd" d="M52.4393 14.0346C50.3224 14.0346 48.6064 15.6408 48.6064 17.8562C48.6064 20.0516 50.3336 21.6779 52.4393 21.6779C54.5562 21.6779 56.2721 20.0605 56.2721 17.8562C56.2721 15.6408 54.5562 14.0346 52.4393 14.0346ZM52.4393 20.1636C51.2811 20.1636 50.2843 19.2048 50.2843 17.8473C50.2843 16.4696 51.2834 15.531 52.4393 15.531C53.5974 15.531 54.5943 16.4696 54.5943 17.8473C54.5965 19.2138 53.5974 20.1636 52.4393 20.1636ZM44.0769 14.0346C41.96 14.0346 40.2441 15.6408 40.2441 17.8562C40.2441 20.0516 41.9712 21.6779 44.0769 21.6779C46.1938 21.6779 47.9097 20.0605 47.9097 17.8562C47.9097 15.6408 46.1916 14.0346 44.0769 14.0346ZM44.0769 20.1636C42.9188 20.1636 41.9219 19.2048 41.9219 17.8473C41.9219 16.4696 42.921 15.531 44.0769 15.531C45.235 15.531 46.2319 16.4696 46.2319 17.8473C46.2319 19.2138 45.235 20.1636 44.0769 20.1636ZM34.1263 15.2017V16.8191H38.0084C37.8897 17.7263 37.5895 18.3961 37.1303 18.8553C36.5613 19.4243 35.6832 20.0426 34.1352 20.0426C31.7495 20.0426 29.8835 18.1161 29.8835 15.7304C29.8835 13.3446 31.7495 11.4181 34.1352 11.4181C35.4233 11.4181 36.3619 11.9266 37.0586 12.5763L38.2055 11.4293C37.2378 10.5019 35.9497 9.79181 34.1442 9.79181C30.8714 9.79181 28.125 12.4576 28.125 15.7214C28.125 18.9942 30.8691 21.651 34.1442 21.651C35.9117 21.651 37.2378 21.0731 38.2862 19.9844C39.3547 18.9158 39.693 17.4082 39.693 16.1918C39.693 15.8133 39.6639 15.4728 39.6034 15.1838H34.124C34.1263 15.1815 34.1263 15.2017 34.1263 15.2017ZM74.827 16.4606C74.5067 15.6027 73.539 14.0256 71.5542 14.0256C69.5874 14.0256 67.9521 15.5736 67.9521 17.8473C67.9521 19.9933 69.5695 21.6689 71.7446 21.6689C73.4919 21.6689 74.5089 20.6004 74.9278 19.9732L73.6308 19.104C73.2007 19.7424 72.6026 20.1613 71.7536 20.1613C70.8956 20.1613 70.2953 19.7715 69.8965 19.0032L75.0062 16.8863C75.0062 16.8885 74.827 16.4606 74.827 16.4606ZM69.6165 17.7375C69.5762 16.2613 70.7635 15.5108 71.6125 15.5108C72.2823 15.5108 72.84 15.8401 73.0305 16.3195L69.6165 17.7375ZM65.4656 21.4404H67.1434V10.213H65.4656V21.4404ZM62.7102 14.8836H62.6497C62.2712 14.4333 61.5521 14.0256 60.6336 14.0256C58.7273 14.0256 56.971 15.7035 56.971 17.8585C56.971 20.0045 58.7183 21.6622 60.6336 21.6622C61.5409 21.6622 62.2712 21.2523 62.6497 20.793H62.7102V21.3419C62.7102 22.8002 61.9307 23.5865 60.6739 23.5865C59.6457 23.5865 59.0073 22.8472 58.7474 22.229L57.2891 22.8383C57.708 23.8463 58.8259 25.0941 60.6717 25.0941C62.6385 25.0941 64.3052 23.9359 64.3052 21.1111V14.2541H62.7192V14.8836C62.7214 14.8836 62.7102 14.8836 62.7102 14.8836ZM60.7837 20.1636C59.6256 20.1636 58.6578 19.1958 58.6578 17.8585C58.6578 16.5099 59.6256 15.5332 60.7837 15.5332C61.9307 15.5332 62.82 16.5211 62.82 17.8585C62.8312 19.1958 61.9329 20.1636 60.7837 20.1636ZM82.6831 10.213H78.6711V21.4404H80.3489V17.1887H82.6854C84.5424 17.1887 86.3681 15.8424 86.3681 13.7053C86.3681 11.5682 84.5491 10.213 82.6831 10.213ZM82.7324 15.6206H80.3467V11.7676H82.7324C83.9891 11.7676 84.6992 12.8048 84.6992 13.6941C84.6992 14.5745 83.9802 15.6206 82.7324 15.6206ZM93.093 14.0144C91.8743 14.0144 90.6176 14.5543 90.0979 15.7304L91.5854 16.3486C91.9057 15.7304 92.4926 15.5198 93.1131 15.5198C93.9823 15.5198 94.8604 16.0395 94.8806 16.9669V17.0856C94.5804 16.9154 93.9218 16.6555 93.1333 16.6555C91.5271 16.6555 89.8986 17.5337 89.8986 19.1802C89.8986 20.6878 91.2158 21.6555 92.683 21.6555C93.8098 21.6555 94.4303 21.147 94.8179 20.5578H94.8783V21.427H96.4957V17.126C96.4957 15.1233 95.0083 14.0144 93.093 14.0144ZM92.8824 20.1636C92.3336 20.1636 91.5652 19.8948 91.5652 19.2048C91.5652 18.3356 92.524 18.0063 93.3416 18.0063C94.0809 18.0063 94.4303 18.1654 94.8694 18.3849C94.7484 19.393 93.8972 20.1546 92.8824 20.1636ZM102.396 14.2541L100.47 19.1241H100.409L98.4133 14.2541H96.6077L99.6028 21.0619L97.8958 24.8454H99.6431L104.251 14.2541H102.396ZM87.2933 21.4404H88.9711V10.213H87.2933V21.4404Z" fill="#2F343D"/>
<path fill-rule="evenodd" clip-rule="evenodd" d="M0.60916 1.2594C0.349307 1.53941 0.199219 1.96728 0.199219 2.52731V22.3905C0.199219 22.9505 0.349306 23.3783 0.618121 23.6472L0.687565 23.7076L11.8165 12.5787V12.3301L0.678604 1.19891L0.60916 1.2594Z" fill="url(#paint0_linear)"/>
<path fill-rule="evenodd" clip-rule="evenodd" d="M15.5195 16.2994L11.8076 12.5875V12.3277L15.5195 8.61578L15.6001 8.66507L19.9908 11.1606C21.2475 11.8684 21.2475 13.0378 19.9908 13.7546L15.6001 16.2501L15.5195 16.2994Z" fill="url(#paint1_linear)"/>
<path fill-rule="evenodd" clip-rule="evenodd" d="M15.6003 16.2502L11.8077 12.4577L0.609375 23.6561C1.01932 24.0951 1.70703 24.1444 2.4754 23.7165L15.6003 16.2502Z" fill="url(#paint2_linear)"/>
<path fill-rule="evenodd" clip-rule="evenodd" d="M15.5993 8.66443L2.47442 1.2093C1.70606 0.770241 1.0161 0.830725 0.608398 1.26979L11.8068 12.457L15.5993 8.66443Z" fill="url(#paint3_linear)"/>
<path opacity="0.12" fill-rule="evenodd" clip-rule="evenodd" d="M19.9903 13.6249L15.5078 16.1696L15.5885 16.2503L19.9791 13.7548C20.6086 13.3964 20.9177 12.9259 20.9177 12.4578C20.8796 12.8879 20.5593 13.2956 19.9903 13.6249Z" fill="white"/>
<path opacity="0.25" fill-rule="evenodd" clip-rule="evenodd" d="M2.47518 1.33924L19.9907 11.2899C20.5597 11.6102 20.88 12.0291 20.9293 12.457C20.9293 11.9888 20.6202 11.5183 19.9907 11.1599L2.47518 1.20931C1.21847 0.490233 0.199219 1.09059 0.199219 2.5265V2.65643C0.199219 1.21827 1.21847 0.629121 2.47518 1.33924Z" fill="white"/>
<path opacity="0.2" fill-rule="evenodd" clip-rule="evenodd" d="M15.5194 16.1696L2.48418 23.5755C1.75615 23.9944 1.10651 23.9652 0.687608 23.5844L0.618164 23.6539L0.687608 23.7143C1.10651 24.0929 1.75615 24.1243 2.48418 23.7054L15.6091 16.2503L15.5194 16.1696Z" fill="white"/>
<defs>
<linearGradient id="paint0_linear" x1="10.8182" y1="2.313" x2="-7.00837" y2="7.06292" gradientUnits="userSpaceOnUse">
<stop stop-color="#00A0FF"/>
<stop offset="0.00657" stop-color="#00A1FF"/>
<stop offset="0.2601" stop-color="#00BEFF"/>
<stop offset="0.5122" stop-color="#00D2FF"/>
<stop offset="0.7604" stop-color="#00DFFF"/>
<stop offset="1" stop-color="#00E3FF"/>
</linearGradient>
<linearGradient id="paint1_linear" x1="21.6296" y1="12.4576" x2="-0.106127" y2="12.4576" gradientUnits="userSpaceOnUse">
<stop stop-color="#FFE000"/>
<stop offset="0.4087" stop-color="#FFBD00"/>
<stop offset="0.7754" stop-color="#FFA500"/>
<stop offset="1" stop-color="#FF9C00"/>
</linearGradient>
<linearGradient id="paint2_linear" x1="13.538" y1="14.5214" x2="-0.773075" y2="38.6082" gradientUnits="userSpaceOnUse">
<stop stop-color="#FF3A44"/>
<stop offset="1" stop-color="#C31162"/>
</linearGradient>
<linearGradient id="paint3_linear" x1="-2.21147" y1="-5.34821" x2="4.17329" y2="5.40932" gradientUnits="userSpaceOnUse">
<stop stop-color="#32A071"/>
<stop offset="0.0685" stop-color="#2DA771"/>
<stop offset="0.4762" stop-color="#15CF74"/>
<stop offset="0.8009" stop-color="#06E775"/>
<stop offset="1" stop-color="#00F076"/>
</linearGradient>
</defs>
</svg>
