<svg width="112" height="31" viewBox="0 0 112 31" fill="none" xmlns="http://www.w3.org/2000/svg">
<path d="M0 4.95957L8.51622 3.79975L8.51994 12.0143L0.00777955 12.0628L0 4.95957ZM8.51216 12.9608L8.51877 21.1825L0.00661023 20.0122L0.00613295 12.9057L8.51216 12.9608ZM9.54452 3.64802L20.8363 2V11.9099L9.54452 11.9995V3.64802ZM20.8389 13.0381L20.8363 22.9034L9.5445 21.3096L9.52868 13.0197L20.8389 13.0381Z" fill="#00ADEF"/>
<path d="M29.9142 7H30.8005L32.0249 2.64205H32.0704L33.2948 7H34.1784L35.7948 1.18182H34.8687L33.738 5.69034H33.684L32.5051 1.18182H31.5903L30.4113 5.6875H30.3573L29.2238 1.18182H28.3005L29.9142 7ZM36.5271 7H37.3765V2.63636H36.5271V7ZM36.9561 1.96307C37.2487 1.96307 37.493 1.7358 37.493 1.45739C37.493 1.17898 37.2487 0.948864 36.9561 0.948864C36.6606 0.948864 36.4191 1.17898 36.4191 1.45739C36.4191 1.7358 36.6606 1.96307 36.9561 1.96307ZM39.3687 4.40909C39.3687 3.71307 39.7948 3.31534 40.3857 3.31534C40.9624 3.31534 41.3119 3.69318 41.3119 4.3267V7H42.1613V4.22443C42.1613 3.14489 41.5676 2.57955 40.6755 2.57955C40.0193 2.57955 39.5903 2.88352 39.3886 3.34659H39.3346V2.63636H38.5193V7H39.3687V4.40909ZM44.934 7.08523C45.7295 7.08523 46.042 6.59943 46.1954 6.32102H46.2664V7H47.096V1.18182H46.2465V3.34375H46.1954C46.042 3.07386 45.7522 2.57955 44.9397 2.57955C43.8857 2.57955 43.1102 3.41193 43.1102 4.8267C43.1102 6.23864 43.8744 7.08523 44.934 7.08523ZM45.1215 6.3608C44.363 6.3608 43.9681 5.69318 43.9681 4.81818C43.9681 3.9517 44.3545 3.30114 45.1215 3.30114C45.863 3.30114 46.2607 3.90625 46.2607 4.81818C46.2607 5.7358 45.8545 6.3608 45.1215 6.3608ZM50.1464 7.08807C51.3765 7.08807 52.1805 6.1875 52.1805 4.83807C52.1805 3.48011 51.3765 2.57955 50.1464 2.57955C48.9163 2.57955 48.1123 3.48011 48.1123 4.83807C48.1123 6.1875 48.9163 7.08807 50.1464 7.08807ZM50.1492 6.375C49.3453 6.375 48.9703 5.6733 48.9703 4.83523C48.9703 4 49.3453 3.28977 50.1492 3.28977C50.9475 3.28977 51.3225 4 51.3225 4.83523C51.3225 5.6733 50.9475 6.375 50.1492 6.375ZM53.9418 7H54.8055L55.6918 3.84943H55.7572L56.6436 7H57.51L58.7913 2.63636H57.9134L57.064 5.8267H57.0214L56.1691 2.63636H55.2913L54.4333 5.84091H54.3907L53.5356 2.63636H52.6578L53.9418 7ZM62.8673 3.7017C62.6911 3.02273 62.1599 2.57955 61.2167 2.57955C60.2309 2.57955 59.532 3.09943 59.532 3.87216C59.532 4.49148 59.907 4.90341 60.7252 5.08523L61.4639 5.24716C61.8843 5.34091 62.0803 5.52841 62.0803 5.80114C62.0803 6.1392 61.7195 6.40341 61.1627 6.40341C60.6542 6.40341 60.3275 6.18466 60.2252 5.75568L59.4042 5.88068C59.5463 6.65341 60.1883 7.08807 61.1684 7.08807C62.2224 7.08807 62.9525 6.52841 62.9525 5.73864C62.9525 5.12216 62.5605 4.74148 61.7593 4.55682L61.0661 4.39773C60.586 4.28409 60.3786 4.12216 60.3815 3.8267C60.3786 3.49148 60.7423 3.25284 61.2252 3.25284C61.7536 3.25284 61.998 3.54545 62.0974 3.83807L62.8673 3.7017ZM67.2735 7.09659C67.9951 7.09659 68.4014 6.73011 68.5633 6.40341H68.5974V7H69.4269V4.10227C69.4269 2.83239 68.4269 2.57955 67.7337 2.57955C66.944 2.57955 66.2167 2.89773 65.9326 3.69318L66.7309 3.875C66.8559 3.56534 67.1741 3.26705 67.7451 3.26705C68.2934 3.26705 68.5747 3.55398 68.5747 4.0483V4.06818C68.5747 4.37784 68.2565 4.37216 67.4724 4.46307C66.6457 4.55966 65.7991 4.77557 65.7991 5.76705C65.7991 6.625 66.444 7.09659 67.2735 7.09659ZM67.4582 6.41477C66.9781 6.41477 66.6315 6.19886 66.6315 5.77841C66.6315 5.32386 67.0349 5.16193 67.5264 5.09659C67.8019 5.05966 68.4553 4.9858 68.5775 4.86364V5.42614C68.5775 5.94318 68.1656 6.41477 67.4582 6.41477ZM71.4078 4.40909C71.4078 3.71307 71.8339 3.31534 72.4248 3.31534C73.0015 3.31534 73.3509 3.69318 73.3509 4.3267V7H74.2004V4.22443C74.2004 3.14489 73.6066 2.57955 72.7146 2.57955C72.0583 2.57955 71.6293 2.88352 71.4276 3.34659H71.3737V2.63636H70.5583V7H71.4078V4.40909ZM76.9731 7.08523C77.7686 7.08523 78.0811 6.59943 78.2345 6.32102H78.3055V7H79.135V1.18182H78.2856V3.34375H78.2345C78.0811 3.07386 77.7913 2.57955 76.9788 2.57955C75.9248 2.57955 75.1492 3.41193 75.1492 4.8267C75.1492 6.23864 75.9134 7.08523 76.9731 7.08523ZM77.1606 6.3608C76.4021 6.3608 76.0072 5.69318 76.0072 4.81818C76.0072 3.9517 76.3936 3.30114 77.1606 3.30114C77.9021 3.30114 78.2998 3.90625 78.2998 4.81818C78.2998 5.7358 77.8936 6.3608 77.1606 6.3608Z" fill="#2F343D"/>
<path d="M32.2159 22.1541C34.3686 22.1541 35.7756 20.5781 35.7756 18.2166C35.7756 15.8402 34.3686 14.2642 32.2159 14.2642C30.0632 14.2642 28.6562 15.8402 28.6562 18.2166C28.6562 20.5781 30.0632 22.1541 32.2159 22.1541ZM32.2209 20.9062C30.8139 20.9062 30.1577 19.6783 30.1577 18.2116C30.1577 16.75 30.8139 15.5071 32.2209 15.5071C33.6179 15.5071 34.2741 16.75 34.2741 18.2116C34.2741 19.6783 33.6179 20.9062 32.2209 20.9062ZM40.4995 14.3636H38.9334V12.5341H37.4469V14.3636H36.3283V15.5568H37.4469V20.0661C37.4419 21.4531 38.5009 22.1243 39.6742 22.0994C40.1465 22.0945 40.4647 22.005 40.6387 21.9403L40.3702 20.7124C40.2708 20.7322 40.0868 20.777 39.8482 20.777C39.3659 20.777 38.9334 20.6179 38.9334 19.7578V15.5568H40.4995V14.3636ZM43.2944 17.4659C43.2944 16.2479 44.065 15.5518 45.1239 15.5518C46.1481 15.5518 46.7596 16.2031 46.7596 17.3217V22H48.2461V17.1428C48.2461 15.2386 47.2021 14.2642 45.631 14.2642C44.4428 14.2642 43.7269 14.7812 43.369 15.6065H43.2745V11.8182H41.8079V22H43.2944V17.4659ZM53.021 22.1541C54.6864 22.1541 55.8647 21.3338 56.2028 20.0909L54.7958 19.8374C54.5273 20.5582 53.881 20.9261 53.0359 20.9261C51.7631 20.9261 50.908 20.1009 50.8683 18.6293H56.2972V18.1023C56.2972 15.343 54.6467 14.2642 52.9165 14.2642C50.7887 14.2642 49.3867 15.8849 49.3867 18.2315C49.3867 20.603 50.7688 22.1541 53.021 22.1541ZM50.8732 17.5156C50.9329 16.4318 51.7184 15.4922 52.9265 15.4922C54.0799 15.4922 54.8356 16.3473 54.8406 17.5156H50.8732ZM57.4466 22H58.9331V17.3366C58.9331 16.3374 59.7037 15.6165 60.7576 15.6165C61.0659 15.6165 61.4139 15.6712 61.5332 15.706V14.2841C61.3841 14.2642 61.0907 14.2493 60.9018 14.2493C60.0069 14.2493 59.2413 14.7564 58.9629 15.5767H58.8833V14.3636H57.4466V22ZM68.7413 22.1541C70.894 22.1541 72.301 20.5781 72.301 18.2166C72.301 15.8402 70.894 14.2642 68.7413 14.2642C66.5886 14.2642 65.1816 15.8402 65.1816 18.2166C65.1816 20.5781 66.5886 22.1541 68.7413 22.1541ZM68.7463 20.9062C67.3393 20.9062 66.6831 19.6783 66.6831 18.2116C66.6831 16.75 67.3393 15.5071 68.7463 15.5071C70.1433 15.5071 70.7995 16.75 70.7995 18.2116C70.7995 19.6783 70.1433 20.9062 68.7463 20.9062ZM73.4602 24.8636H74.9467V20.8118H75.0362C75.3047 21.299 75.8516 22.1491 77.2436 22.1491C79.093 22.1491 80.4354 20.6676 80.4354 18.1967C80.4354 15.7209 79.0732 14.2642 77.2287 14.2642C75.8118 14.2642 75.2997 15.1293 75.0362 15.6016H74.9119V14.3636H73.4602V24.8636ZM74.9169 18.1818C74.9169 16.5859 75.6129 15.527 76.9105 15.527C78.2578 15.527 78.9339 16.6655 78.9339 18.1818C78.9339 19.7131 78.2379 20.8814 76.9105 20.8814C75.6328 20.8814 74.9169 19.7876 74.9169 18.1818ZM85.1655 14.3636H83.5994V12.5341H82.1129V14.3636H80.9943V15.5568H82.1129V20.0661C82.108 21.4531 83.1669 22.1243 84.3402 22.0994C84.8125 22.0945 85.1307 22.005 85.3047 21.9403L85.0362 20.7124C84.9368 20.7322 84.7528 20.777 84.5142 20.777C84.032 20.777 83.5994 20.6179 83.5994 19.7578V15.5568H85.1655V14.3636ZM86.3098 22H87.7963V14.3636H86.3098V22ZM87.0605 13.1854C87.5726 13.1854 88.0002 12.7876 88.0002 12.3004C88.0002 11.8132 87.5726 11.4105 87.0605 11.4105C86.5435 11.4105 86.1209 11.8132 86.1209 12.3004C86.1209 12.7876 86.5435 13.1854 87.0605 13.1854ZM92.5128 22.1541C94.6655 22.1541 96.0724 20.5781 96.0724 18.2166C96.0724 15.8402 94.6655 14.2642 92.5128 14.2642C90.3601 14.2642 88.9531 15.8402 88.9531 18.2166C88.9531 20.5781 90.3601 22.1541 92.5128 22.1541ZM92.5178 20.9062C91.1108 20.9062 90.4545 19.6783 90.4545 18.2116C90.4545 16.75 91.1108 15.5071 92.5178 15.5071C93.9148 15.5071 94.571 16.75 94.571 18.2116C94.571 19.6783 93.9148 20.9062 92.5178 20.9062ZM98.7182 17.4659C98.7182 16.2479 99.464 15.5518 100.498 15.5518C101.507 15.5518 102.119 16.2131 102.119 17.3217V22H103.605V17.1428C103.605 15.2536 102.566 14.2642 101.005 14.2642C99.8567 14.2642 99.106 14.7962 98.753 15.6065H98.6586V14.3636H97.2317V22H98.7182V17.4659ZM110.821 16.228C110.513 15.0398 109.583 14.2642 107.933 14.2642C106.208 14.2642 104.985 15.174 104.985 16.5263C104.985 17.6101 105.641 18.331 107.073 18.6491L108.365 18.9325C109.101 19.0966 109.444 19.4247 109.444 19.902C109.444 20.4936 108.813 20.956 107.838 20.956C106.948 20.956 106.377 20.5732 106.198 19.8224L104.761 20.0412C105.009 21.3935 106.133 22.1541 107.848 22.1541C109.693 22.1541 110.97 21.1747 110.97 19.7926C110.97 18.7138 110.284 18.0476 108.882 17.7244L107.669 17.446C106.829 17.2472 106.466 16.9638 106.471 16.4467C106.466 15.8601 107.102 15.4425 107.948 15.4425C108.872 15.4425 109.3 15.9545 109.474 16.4666L110.821 16.228Z" fill="#2F343D"/>
</svg>
