<svg width="93" height="25" viewBox="0 0 93 25" fill="none" xmlns="http://www.w3.org/2000/svg">
<path d="M14.6941 11.5929C14.6713 8.87674 16.9171 7.5566 17.0157 7.49591C15.7411 5.64468 13.7685 5.38672 13.0781 5.36396C11.4241 5.18946 9.81564 6.35786 8.97348 6.35786C8.11615 6.35786 6.81119 5.38672 5.41518 5.40948C3.61706 5.43983 1.92516 6.47925 1.00713 8.10287C-0.897209 11.4032 0.521561 16.2589 2.35003 18.9295C3.26806 20.2345 4.33024 21.6988 5.73383 21.6457C7.09949 21.5926 7.61541 20.7732 9.26179 20.7732C10.9006 20.7732 11.3786 21.6457 12.8049 21.6153C14.2768 21.5926 15.1948 20.3028 16.0825 18.9826C17.1371 17.488 17.562 16.0085 17.5771 15.9327C17.5392 15.9175 14.7244 14.8401 14.6941 11.5929Z" fill="#2F343D"/>
<path d="M12.0008 3.61125C12.7368 2.69322 13.2375 1.44137 13.101 0.166748C12.0388 0.21227 10.7035 0.902688 9.93717 1.80554C9.26193 2.60218 8.65497 3.89956 8.80671 5.12106C10.0055 5.21211 11.2345 4.5141 12.0008 3.61125Z" fill="#2F343D"/>
<path d="M34.511 21.4558H32.5991L31.5521 18.163H27.9103L26.9164 21.4558H25.0576L28.6614 10.2498H30.892L34.511 21.4558ZM31.241 16.7822L30.2927 13.8612C30.194 13.5577 30.0043 12.8597 29.7312 11.752H29.6933C29.5795 12.23 29.405 12.9356 29.1622 13.8612L28.229 16.7822H31.241Z" fill="#2F343D"/>
<path d="M43.7745 17.321C43.7745 18.6943 43.4027 19.7792 42.6516 20.5758C41.984 21.289 41.1494 21.638 40.1631 21.638C39.0933 21.638 38.327 21.2587 37.8566 20.4924V24.7335H36.0585V16.0312C36.0585 15.1663 36.0358 14.2862 35.9902 13.3758H37.5683L37.667 14.658H37.6973C38.2967 13.6944 39.2071 13.2089 40.421 13.2089C41.377 13.2089 42.1661 13.5882 42.8034 14.3393C43.4558 15.098 43.7745 16.0843 43.7745 17.321ZM41.946 17.3817C41.946 16.5927 41.7715 15.9478 41.4149 15.4394C41.028 14.9084 40.5045 14.6428 39.852 14.6428C39.412 14.6428 39.0099 14.7945 38.6457 15.0829C38.2891 15.3787 38.0463 15.7581 37.9401 16.2361C37.887 16.4561 37.8566 16.6382 37.8566 16.7823V18.1328C37.8566 18.717 38.0387 19.2178 38.3953 19.6199C38.7519 20.022 39.2223 20.2268 39.7989 20.2268C40.4742 20.2268 40.9977 19.9613 41.377 19.4454C41.7564 18.9219 41.946 18.239 41.946 17.3817Z" fill="#2F343D"/>
<path d="M53.0616 17.321C53.0616 18.6943 52.6898 19.7792 51.9387 20.5758C51.2711 21.289 50.4365 21.638 49.4502 21.638C48.3804 21.638 47.6141 21.2587 47.1437 20.4924V24.7335H45.3456V16.0312C45.3456 15.1663 45.3229 14.2862 45.2773 13.3758H46.8554L46.9541 14.658H46.9844C47.5838 13.6944 48.4942 13.2089 49.7082 13.2089C50.6641 13.2089 51.4532 13.5882 52.0905 14.3393C52.743 15.098 53.0616 16.0843 53.0616 17.321ZM51.2331 17.3817C51.2331 16.5927 51.0586 15.9478 50.7021 15.4394C50.3151 14.9084 49.7916 14.6428 49.1391 14.6428C48.6991 14.6428 48.297 14.7945 47.9328 15.0829C47.5762 15.3787 47.341 15.7581 47.2272 16.2361C47.1741 16.4561 47.1437 16.6382 47.1437 16.7823V18.1328C47.1437 18.717 47.3258 19.2178 47.6824 19.6199C48.039 20.022 48.5094 20.2268 49.086 20.2268C49.7613 20.2268 50.2924 19.9613 50.6641 19.4454C51.0511 18.9219 51.2331 18.239 51.2331 17.3817Z" fill="#2F343D"/>
<path d="M63.4558 18.3148C63.4558 19.2707 63.122 20.0446 62.4619 20.644C61.7335 21.2965 60.7169 21.6227 59.4119 21.6227C58.2056 21.6227 57.242 21.3875 56.5137 20.9247L56.931 19.4301C57.72 19.8929 58.5849 20.1281 59.5257 20.1281C60.201 20.1281 60.732 19.9763 61.1038 19.6728C61.4832 19.3694 61.6728 18.9597 61.6728 18.4513C61.6728 17.9961 61.5135 17.6168 61.21 17.3057C60.899 16.9946 60.383 16.7063 59.6623 16.4408C57.6821 15.7048 56.7033 14.6351 56.7033 13.2315C56.7033 12.3134 57.0524 11.5623 57.7428 10.9705C58.4332 10.3863 59.3512 10.0905 60.4969 10.0905C61.5135 10.0905 62.3633 10.265 63.0385 10.6215L62.5833 12.0782C61.946 11.7368 61.2328 11.5623 60.4286 11.5623C59.7988 11.5623 59.2981 11.7217 58.9415 12.0251C58.6456 12.3059 58.4939 12.6397 58.4939 13.0418C58.4939 13.4818 58.6684 13.8536 59.0098 14.1343C59.3057 14.3999 59.852 14.6882 60.641 14.9992C61.6046 15.3862 62.3101 15.8414 62.7654 16.3649C63.2282 16.8884 63.4558 17.5409 63.4558 18.3148Z" fill="#2F343D"/>
<path d="M69.4037 14.7262H67.4235V18.6486C67.4235 19.6425 67.7725 20.1433 68.4705 20.1433C68.7891 20.1433 69.0547 20.1129 69.2671 20.0598L69.3202 21.4255C68.9636 21.5545 68.5008 21.6227 67.9242 21.6227C67.211 21.6227 66.6648 21.4027 66.2627 20.9703C65.8606 20.5378 65.6633 19.8095 65.6633 18.7928V14.7186H64.4873V13.3757H65.6633V11.8962L67.4235 11.3651V13.3757H69.4037V14.7262Z" fill="#2F343D"/>
<path d="M78.3107 17.3513C78.3107 18.5956 77.9541 19.6123 77.2485 20.4089C76.505 21.2283 75.5187 21.638 74.2896 21.638C73.106 21.638 72.1576 21.2435 71.4521 20.462C70.7465 19.6806 70.3975 18.6867 70.3975 17.4879C70.3975 16.2361 70.7616 15.2118 71.4824 14.4152C72.2108 13.6185 73.1895 13.2164 74.4186 13.2164C75.6021 13.2164 76.5581 13.611 77.2789 14.4C77.9693 15.1587 78.3107 16.145 78.3107 17.3513ZM76.4519 17.3893C76.4519 16.6458 76.2926 16.016 75.9739 15.4849C75.5946 14.84 75.0559 14.5214 74.3579 14.5214C73.6371 14.5214 73.0833 14.84 72.7115 15.4849C72.3853 16.016 72.2335 16.6609 72.2335 17.4272C72.2335 18.1707 72.3928 18.8081 72.7115 19.3316C73.0984 19.9765 73.6447 20.2951 74.3427 20.2951C75.0255 20.2951 75.5642 19.9689 75.9587 19.3164C76.285 18.7701 76.4519 18.1328 76.4519 17.3893Z" fill="#2F343D"/>
<path d="M84.1525 14.9539C83.978 14.9235 83.7883 14.9084 83.5835 14.9084C82.9537 14.9084 82.4606 15.1435 82.1192 15.6215C81.8233 16.0388 81.6715 16.5775 81.6715 17.2148V21.4559H79.8734V15.9174C79.8734 14.9842 79.8582 14.1345 79.8203 13.3758H81.3832L81.4515 14.9235H81.5046C81.6943 14.3924 81.9902 13.96 82.3999 13.6413C82.802 13.353 83.2345 13.2089 83.6973 13.2089C83.8642 13.2089 84.0159 13.224 84.1449 13.2392L84.1525 14.9539Z" fill="#2F343D"/>
<path d="M92.18 17.0326C92.18 17.3513 92.1572 17.6244 92.1117 17.8445H86.725C86.7477 18.6411 87.0057 19.2556 87.5064 19.6729C87.9616 20.0447 88.5458 20.2344 89.2666 20.2344C90.0632 20.2344 90.7916 20.1054 91.4441 19.855L91.7248 21.0993C90.9585 21.4331 90.0556 21.6 89.0162 21.6C87.7644 21.6 86.7781 21.2283 86.0649 20.4923C85.3517 19.7564 84.9951 18.7625 84.9951 17.5258C84.9951 16.3119 85.3289 15.2952 85.9966 14.4834C86.6946 13.6185 87.6354 13.186 88.819 13.186C89.9798 13.186 90.8675 13.6185 91.4592 14.4834C91.9372 15.1814 92.18 16.0236 92.18 17.0326ZM90.4653 16.5698C90.4805 16.0387 90.3591 15.5759 90.1163 15.189C89.8053 14.6883 89.3273 14.4379 88.69 14.4379C88.1058 14.4379 87.6278 14.6807 87.2636 15.1662C86.9677 15.5532 86.7856 16.0236 86.7325 16.5623L90.4653 16.5698Z" fill="#2F343D"/>
<path d="M30.3764 6.24327H29.4356L28.9197 4.62724H27.1292L26.636 6.24327H25.7256L27.4934 0.735107H28.5859L30.3764 6.24327ZM28.7604 3.94441L28.2976 2.50288C28.2521 2.35873 28.161 2.00972 28.0169 1.46346H28.0017C27.941 1.69866 27.8651 2.04007 27.7361 2.50288L27.2809 3.94441H28.7604Z" fill="#2F343D"/>
<path d="M34.8075 2.26831L33.3052 6.2439H32.4479L30.9912 2.26831H31.9396L32.6148 4.36991C32.7286 4.71891 32.8273 5.05274 32.9031 5.3714H32.9259C32.9942 5.08309 33.0928 4.74926 33.2142 4.36991L33.8819 2.26831H34.8075Z" fill="#2F343D"/>
<path d="M38.0087 6.24395L37.9405 5.78873H37.9177C37.6446 6.1529 37.2576 6.33499 36.7569 6.33499C36.0437 6.33499 35.543 5.83425 35.543 5.16659C35.543 4.18787 36.3927 3.67954 37.8646 3.67954V3.60367C37.8646 3.08017 37.5839 2.82221 37.0376 2.82221C36.6431 2.82221 36.3017 2.92084 35.9982 3.1181L35.8161 2.54149C36.1803 2.31388 36.6431 2.20007 37.1818 2.20007C38.2212 2.20007 38.7447 2.74634 38.7447 3.84645V5.31075C38.7447 5.71286 38.7599 6.02392 38.8054 6.25912L38.0087 6.24395ZM37.8874 4.26374C36.9086 4.26374 36.4155 4.49894 36.4155 5.06796C36.4155 5.48525 36.6658 5.6901 37.0224 5.6901C37.4701 5.6901 37.8874 5.34868 37.8874 4.87829V4.26374Z" fill="#2F343D"/>
<path d="M40.71 1.61587C40.4141 1.61587 40.1865 1.38826 40.1865 1.08478C40.1865 0.781302 40.4217 0.561279 40.7252 0.561279C41.0287 0.561279 41.2715 0.781302 41.2639 1.08478C41.2639 1.40344 41.0363 1.61587 40.71 1.61587ZM40.2852 2.26836H41.1652V6.23636H40.2852V2.26836Z" fill="#2F343D"/>
<path d="M42.7354 0.447388H43.6154V6.23627H42.7354V0.447388Z" fill="#2F343D"/>
<path d="M47.3632 6.24397L47.295 5.78875H47.2722C46.9991 6.15292 46.6121 6.33501 46.1114 6.33501C45.3982 6.33501 44.8975 5.83427 44.8975 5.16661C44.8975 4.18789 45.7472 3.67956 47.2191 3.67956V3.60369C47.2191 3.08018 46.9384 2.82223 46.3921 2.82223C45.9976 2.82223 45.6562 2.92086 45.3527 3.11812L45.1706 2.53392C45.5348 2.30631 45.9976 2.1925 46.5363 2.1925C47.5757 2.1925 48.0992 2.73877 48.0992 3.83889V5.30318C48.0992 5.70529 48.1144 6.01636 48.1523 6.25155H47.3632V6.24397ZM47.2418 4.26376C46.2631 4.26376 45.77 4.49895 45.77 5.06798C45.77 5.48527 46.0203 5.69011 46.3769 5.69011C46.8246 5.69011 47.2418 5.3487 47.2418 4.8783V4.26376Z" fill="#2F343D"/>
<path d="M51.6806 6.3349C51.1192 6.3349 50.7019 6.09971 50.4288 5.62931H50.4136L50.3605 6.24386H49.6094C49.6321 5.92521 49.6397 5.56862 49.6397 5.17409V0.447388H50.5274V2.85247H50.5426C50.8081 2.41242 51.2254 2.1924 51.8096 2.1924C52.7656 2.1924 53.4332 3.0118 53.4332 4.20296C53.4332 5.43205 52.6897 6.3349 51.6806 6.3349ZM51.4985 2.88282C50.9902 2.88282 50.5274 3.32286 50.5274 3.93741V4.63541C50.5274 5.18168 50.9447 5.62931 51.4834 5.62931C52.1434 5.62931 52.538 5.09063 52.538 4.2333C52.538 3.42908 52.1283 2.88282 51.4985 2.88282Z" fill="#2F343D"/>
<path d="M54.7383 0.447388H55.6184V6.23627H54.7383V0.447388Z" fill="#2F343D"/>
<path d="M60.4205 4.46864H57.7726C57.7878 5.21976 58.2885 5.64463 59.0245 5.64463C59.419 5.64463 59.7756 5.57635 60.0942 5.45495L60.2308 6.0695C59.859 6.23642 59.419 6.31229 58.9031 6.31229C57.6588 6.31229 56.9229 5.53082 56.9229 4.30932C56.9229 3.0954 57.674 2.17737 58.8044 2.17737C59.8135 2.17737 60.4584 2.92848 60.4584 4.06653C60.4584 4.22586 60.4508 4.36243 60.4205 4.46864ZM59.6162 3.83892C59.6162 3.22438 59.3052 2.79192 58.7437 2.79192C58.2354 2.79192 57.8409 3.23196 57.7802 3.83892H59.6162Z" fill="#2F343D"/>
<path d="M65.7693 6.33501C64.6085 6.33501 63.8574 5.47009 63.8574 4.29411C63.8574 3.06501 64.6237 2.1925 65.8376 2.1925C66.9833 2.1925 67.7496 3.01949 67.7496 4.22582C67.7496 5.4625 66.9605 6.33501 65.7693 6.33501ZM65.8073 2.8374C65.17 2.8374 64.7603 3.43677 64.7603 4.26376C64.7603 5.08315 65.1776 5.67494 65.7997 5.67494C66.4218 5.67494 66.8391 5.03763 66.8391 4.241C66.8315 3.43677 66.4294 2.8374 65.8073 2.8374Z" fill="#2F343D"/>
<path d="M72.4914 6.24386H71.6114V3.96017C71.6114 3.25458 71.3382 2.90558 70.8071 2.90558C70.2836 2.90558 69.927 3.35321 69.927 3.87672V6.23628H69.047V3.40632C69.047 3.05732 69.0394 2.67797 69.0166 2.26827H69.7905L69.8284 2.88282H69.8512C70.0864 2.45795 70.5719 2.18481 71.1106 2.18481C71.9452 2.18481 72.4914 2.82212 72.4914 3.86154V6.24386Z" fill="#2F343D"/>
<path d="M78.2654 2.93619H77.2943V4.86329C77.2943 5.35645 77.4688 5.59923 77.8102 5.59923C77.962 5.59923 78.0985 5.58406 78.2047 5.5613L78.2275 6.22895C78.053 6.29724 77.8254 6.32759 77.5447 6.32759C76.8467 6.32759 76.437 5.94065 76.437 4.93916V2.93619H75.8604V2.27612H76.437V1.54777L77.3019 1.28223V2.26854H78.273V2.93619" fill="#2F343D"/>
<path d="M82.9396 6.24386H82.0595V3.97535C82.0595 3.26217 81.7864 2.90558 81.2553 2.90558C80.8001 2.90558 80.3752 3.21664 80.3752 3.84637V6.23627H79.4951V0.447388H80.3752V2.82971H80.3904C80.6711 2.39725 81.0656 2.18481 81.5815 2.18481C82.4237 2.18481 82.9396 2.83729 82.9396 3.87671V6.24386Z" fill="#2F343D"/>
<path d="M87.4459 4.46864H84.798C84.8132 5.21976 85.3139 5.64463 86.0498 5.64463C86.4444 5.64463 86.801 5.57635 87.1196 5.45495L87.2562 6.0695C86.8844 6.23642 86.4444 6.31229 85.9285 6.31229C84.6842 6.31229 83.9482 5.53082 83.9482 4.30932C83.9482 3.0954 84.6994 2.17737 85.8298 2.17737C86.8389 2.17737 87.4838 2.92848 87.4838 4.06653C87.4838 4.22586 87.4762 4.36243 87.4459 4.46864ZM86.6416 3.83892C86.6416 3.22438 86.3306 2.79192 85.7691 2.79192C85.2608 2.79192 84.8587 3.23196 84.8056 3.83892H86.6416Z" fill="#2F343D"/>
</svg>
